<svg xmlns="http://www.w3.org/2000/svg" version="1.1" xmlns:xlink="http://www.w3.org/1999/xlink" xmlns:svgjs="http://svgjs.dev/svgjs" width="2000" height="358" viewBox="0 0 2000 358"><g transform="matrix(1,0,0,1,-1.2121212121212466,1.0455889658714739)"><svg viewBox="0 0 396 71" data-background-color="#ffffff" preserveAspectRatio="xMidYMid meet" height="358" width="2000" xmlns="http://www.w3.org/2000/svg" xmlns:xlink="http://www.w3.org/1999/xlink"><g id="tight-bounds" transform="matrix(1,0,0,1,0.2400000000000091,-0.2073654094326116)"><svg viewBox="0 0 395.52 71.41473081886524" height="71.41473081886524" width="395.52"><g><svg viewBox="0 0 513.9709276551519 92.8021223887923" height="71.41473081886524" width="395.52"><g transform="matrix(1,0,0,1,118.45092765515182,18.88032550936131)"><svg viewBox="0 0 395.52 55.04147137006968" height="55.04147137006968" width="395.52"><g id="textblocktransform"><svg viewBox="0 0 395.52 55.04147137006968" height="55.04147137006968" width="395.52" id="textblock"><g><svg viewBox="0 0 395.52 55.04147137006968" height="55.04147137006968" width="395.52"><g transform="matrix(1,0,0,1,0,0)"><svg width="395.52" viewBox="1.85 -37.63 347.95 48.43" height="55.04147137006968" data-palette-color="#000000"><path d="M15.9 0.68L15.9 0.68Q11.5 0.68 8.35-1.34 5.2-3.35 3.53-7.35 1.85-11.35 1.85-17.3L1.85-17.3Q1.85-21.73 3.05-25.08 4.25-28.43 6.35-30.68 8.45-32.93 11.16-34.06 13.88-35.2 16.9-35.2L16.9-35.2Q20.43-35.2 22.79-34.15 25.15-33.1 27.18-31.23L27.18-31.23 23.93-27.85Q22.35-29.3 20.71-29.99 19.07-30.68 17.05-30.68L17.05-30.68Q15.23-30.68 13.59-29.96 11.95-29.25 10.68-27.69 9.4-26.13 8.66-23.56 7.93-21 7.93-17.28L7.93-17.28Q7.93-12.48 8.85-9.51 9.78-6.55 11.61-5.2 13.45-3.85 16.18-3.85L16.18-3.85Q17.75-3.85 19.18-4.23 20.6-4.6 21.88-5.3L21.88-5.3 21.88-14.8 16.03-14.8 15.4-19.23 27.5-19.23 27.5-2.5Q25.05-1.13 22.29-0.23 19.53 0.68 15.9 0.68ZM32.47-37L46.05-37 46.05-7.2Q46.05-5.38 47.16-4.61 48.27-3.85 50.05-3.85L50.05-3.85Q51.2-3.85 52.22-4.1 53.25-4.35 54.22-4.73L54.22-4.73 55.65-0.83Q54.47-0.23 52.76 0.23 51.05 0.68 48.85 0.68L48.85 0.68Q44.87 0.68 42.66-1.56 40.45-3.8 40.45-7.7L40.45-7.7 40.45-32.88 32.47-32.88 32.47-37ZM84.62-18.25L84.62-6.48Q84.62-4.93 85.09-4.21 85.57-3.5 86.62-3.15L86.62-3.15 85.37 0.65Q83.42 0.43 82.02-0.43 80.62-1.28 79.9-3L79.9-3Q78.45-1.18 76.22-0.25 74 0.68 71.47 0.68L71.47 0.68Q67.47 0.68 65.13-1.59 62.8-3.85 62.8-7.53L62.8-7.53Q62.8-11.7 66.05-13.95 69.3-16.2 75.34-16.2L75.34-16.2 79.12-16.2 79.12-17.93Q79.12-20.48 77.58-21.6 76.05-22.73 73.25-22.73L73.25-22.73Q71.95-22.73 70.09-22.39 68.25-22.05 66.22-21.35L66.22-21.35 64.84-25.3Q67.32-26.23 69.7-26.66 72.07-27.1 74.09-27.1L74.09-27.1Q79.4-27.1 82.01-24.75 84.62-22.4 84.62-18.25L84.62-18.25ZM73.17-3.45L73.17-3.45Q74.87-3.45 76.5-4.35 78.12-5.25 79.12-6.88L79.12-6.88 79.12-12.7 76.02-12.7Q72.07-12.7 70.37-11.39 68.67-10.08 68.67-7.78L68.67-7.78Q68.67-5.68 69.81-4.56 70.95-3.45 73.17-3.45ZM104.04-3.63L104.04-3.63Q106.67-3.63 108.22-4.56 109.77-5.5 109.77-7.15L109.77-7.15Q109.77-8.22 109.32-8.99 108.87-9.75 107.52-10.39 106.17-11.03 103.42-11.73L103.42-11.73Q100.82-12.4 98.86-13.33 96.89-14.25 95.82-15.73 94.74-17.2 94.74-19.53L94.74-19.53Q94.74-21.8 96.02-23.5 97.29-25.2 99.68-26.15 102.07-27.1 105.29-27.1L105.29-27.1Q108.62-27.1 111.09-26.23 113.57-25.35 115.32-24.05L115.32-24.05 112.97-20.53Q111.42-21.55 109.58-22.2 107.74-22.85 105.44-22.85L105.44-22.85Q102.77-22.85 101.61-22.05 100.44-21.25 100.44-19.93L100.44-19.93Q100.44-18.95 101.03-18.29 101.62-17.63 103.07-17.06 104.52-16.5 107.17-15.75L107.17-15.75Q109.74-15.05 111.66-14.1 113.57-13.15 114.63-11.59 115.69-10.03 115.69-7.53L115.69-7.53Q115.69-4.67 114.06-2.86 112.42-1.05 109.76-0.19 107.09 0.68 104.04 0.68L104.04 0.68Q100.37 0.68 97.69-0.39 95.02-1.45 93.19-3.05L93.19-3.05 96.17-6.45Q97.72-5.2 99.72-4.41 101.72-3.63 104.04-3.63ZM134.04-3.63L134.04-3.63Q136.67-3.63 138.22-4.56 139.77-5.5 139.77-7.15L139.77-7.15Q139.77-8.22 139.31-8.99 138.87-9.75 137.52-10.39 136.17-11.03 133.42-11.73L133.42-11.73Q130.81-12.4 128.85-13.33 126.89-14.25 125.82-15.73 124.74-17.2 124.74-19.53L124.74-19.53Q124.74-21.8 126.02-23.5 127.29-25.2 129.68-26.15 132.06-27.1 135.29-27.1L135.29-27.1Q138.62-27.1 141.09-26.23 143.56-25.35 145.31-24.05L145.31-24.05 142.97-20.53Q141.42-21.55 139.58-22.2 137.74-22.85 135.44-22.85L135.44-22.85Q132.77-22.85 131.6-22.05 130.44-21.25 130.44-19.93L130.44-19.93Q130.44-18.95 131.03-18.29 131.62-17.63 133.06-17.06 134.52-16.5 137.17-15.75L137.17-15.75Q139.74-15.05 141.65-14.1 143.56-13.15 144.63-11.59 145.69-10.03 145.69-7.53L145.69-7.53Q145.69-4.67 144.05-2.86 142.42-1.05 139.75-0.19 137.09 0.68 134.04 0.68L134.04 0.68Q130.37 0.68 127.69-0.39 125.02-1.45 123.19-3.05L123.19-3.05 126.17-6.45Q127.72-5.2 129.72-4.41 131.72-3.63 134.04-3.63ZM171.79-26.4L177.54-26.4 168.44 0.1Q167.41 3.1 165.81 5.39 164.21 7.68 161.71 9.08 159.21 10.48 155.51 10.8L155.51 10.8 154.79 6.6Q157.46 6.18 159.05 5.36 160.64 4.55 161.58 3.23 162.51 1.9 163.24 0L163.24 0 161.34 0 152.44-26.4 158.39-26.4 165.04-3.9 171.79-26.4ZM227.16-3.93L227.16-3.93Q229.01-3.93 230.61-4.56 232.21-5.2 233.66-6.23L233.66-6.23 236.26-2.63Q234.53-1.15 232.07-0.24 229.61 0.68 226.98 0.68L226.98 0.68Q222.93 0.68 220.06-1.04 217.18-2.75 215.66-5.85 214.13-8.95 214.13-13.08L214.13-13.08Q214.13-17.1 215.67-20.26 217.21-23.43 220.11-25.26 223.01-27.1 227.08-27.1L227.08-27.1Q229.78-27.1 232.06-26.3 234.33-25.5 236.23-23.93L236.23-23.93 233.66-20.4Q232.11-21.48 230.5-22.04 228.88-22.6 227.18-22.6L227.18-22.6Q224.06-22.6 222.07-20.3 220.08-18 220.08-13.08L220.08-13.08Q220.08-9.78 221-7.76 221.91-5.75 223.51-4.84 225.11-3.93 227.16-3.93ZM255.01-27.1L255.01-27.1Q258.88-27.1 261.53-25.38 264.18-23.65 265.54-20.55 266.91-17.45 266.91-13.25L266.91-13.25Q266.91-9.08 265.52-5.94 264.13-2.8 261.47-1.06 258.81 0.68 254.98 0.68L254.98 0.68Q251.16 0.68 248.49-1.01 245.83-2.7 244.44-5.83 243.06-8.95 243.06-13.2L243.06-13.2Q243.06-17.32 244.44-20.45 245.83-23.58 248.51-25.34 251.18-27.1 255.01-27.1ZM255.01-22.75L255.01-22.75Q251.98-22.75 250.46-20.44 248.93-18.13 248.93-13.2L248.93-13.2Q248.93-8.3 250.44-5.98 251.96-3.65 254.98-3.65L254.98-3.65Q258-3.65 259.52-5.98 261.03-8.3 261.03-13.25L261.03-13.25Q261.03-18.13 259.53-20.44 258.03-22.75 255.01-22.75ZM289.93-24.23L289.93-37.63 295.53-37 295.53 0 290.6 0 290.2-3.25Q288.85-1.38 286.98-0.35 285.1 0.68 282.78 0.68L282.78 0.68Q279.38 0.68 277.18-1.06 274.98-2.8 273.92-5.94 272.85-9.08 272.85-13.2L272.85-13.2Q272.85-17.23 274.1-20.36 275.35-23.5 277.68-25.3 280-27.1 283.28-27.1L283.28-27.1Q285.35-27.1 287-26.36 288.65-25.63 289.93-24.23L289.93-24.23ZM284.75-22.8L284.75-22.8Q281.93-22.8 280.35-20.46 278.78-18.13 278.78-13.2L278.78-13.2Q278.78-9.83 279.43-7.71 280.08-5.6 281.3-4.61 282.53-3.63 284.25-3.63L284.25-3.63Q286.15-3.63 287.55-4.73 288.95-5.83 289.93-7.38L289.93-7.38 289.93-19.88Q288.95-21.28 287.65-22.04 286.35-22.8 284.75-22.8ZM326.58-11.4L309.08-11.4Q309.25-8.7 310.23-6.99 311.2-5.28 312.79-4.48 314.38-3.68 316.28-3.68L316.28-3.68Q318.23-3.68 319.88-4.28 321.53-4.88 323.2-5.98L323.2-5.98 325.63-2.63Q323.78-1.13 321.3-0.23 318.83 0.68 316 0.68L316 0.68Q311.9 0.68 309.06-1.07 306.23-2.83 304.75-5.95 303.28-9.08 303.28-13.18L303.28-13.18Q303.28-17.15 304.73-20.29 306.18-23.43 308.88-25.26 311.58-27.1 315.33-27.1L315.33-27.1Q318.85-27.1 321.39-25.5 323.93-23.9 325.31-20.96 326.7-18.03 326.7-13.9L326.7-13.9Q326.7-13.23 326.66-12.56 326.63-11.9 326.58-11.4L326.58-11.4ZM315.38-22.95L315.38-22.95Q312.75-22.95 311.04-21.08 309.33-19.2 309.05-15.23L309.05-15.23 321.28-15.23Q321.2-18.95 319.69-20.95 318.18-22.95 315.38-22.95ZM340.12-4.17L340.12-4.17Q340.12-5.53 340.76-6.61 341.4-7.7 342.5-8.35 343.6-9 344.95-9L344.95-9Q346.32-9 347.42-8.35 348.52-7.7 349.16-6.61 349.8-5.53 349.8-4.17L349.8-4.17Q349.8-2.85 349.16-1.74 348.52-0.63 347.42 0.03 346.32 0.68 344.95 0.68L344.95 0.68Q343.6 0.68 342.5 0.03 341.4-0.63 340.76-1.74 340.12-2.85 340.12-4.17Z" opacity="1" transform="matrix(1,0,0,1,0,0)" fill="#ffffff" class="wordmark-text-0" data-fill-palette-color="primary" id="text-0"></path></svg></g></svg></g></svg></g></svg></g><g><svg viewBox="0 0 105.45695725999124 92.8021223887923" height="92.8021223887923" width="105.45695725999124"><g><svg xmlns="http://www.w3.org/2000/svg" xmlns:xlink="http://www.w3.org/1999/xlink" version="1.1" x="0" y="0" viewBox="0 6 100 88" enable-background="new 0 0 100 100" xml:space="preserve" height="92.8021223887923" width="105.45695725999124" class="icon-icon-0" data-fill-palette-color="accent" id="icon-0"><g fill="#000000" data-fill-palette-color="accent"><path d="M41.751 59.098v6.119L20 55.789v-5.232l21.751-9.427v6.162l-15.156 5.839L41.751 59.098z" fill="#ffffff" data-fill-palette-color="accent"></path><path d="M55.2 41l-6.055 24.93c-0.201 0.821-0.377 1.471-0.529 1.946-0.151 0.476-0.382 0.849-0.691 1.112-0.31 0.268-0.761 0.4-1.352 0.4-1.47 0-2.206-0.636-2.206-1.902 0-0.332 0.145-1.16 0.433-2.486l6.033-24.93c0.317-1.326 0.619-2.234 0.907-2.724 0.289-0.49 0.851-0.735 1.688-0.735 0.721 0 1.271 0.173 1.653 0.519 0.382 0.346 0.573 0.822 0.573 1.427C55.654 39.004 55.502 39.818 55.2 41z" fill="#ffffff" data-fill-palette-color="accent"></path><path d="M80 55.789L58.249 65.26v-6.119l15.2-5.967-15.2-5.882v-6.076L80 50.6V55.789z" fill="#ffffff" data-fill-palette-color="accent"></path></g><path d="M94 6H6c-3.313 0-6 2.687-6 6v76c0 3.313 2.687 6 6 6h88c3.314 0 6-2.688 6-6V12C100 8.686 97.314 6 94 6zM79 10c2.205 0 4 1.794 4 4s-1.795 4-4 4-4-1.794-4-4S76.795 10 79 10zM68 10c2.205 0 4 1.794 4 4s-1.795 4-4 4-4-1.794-4-4S65.795 10 68 10zM94 88H6V22h88V88zM90 18c-2.205 0-4-1.794-4-4s1.795-4 4-4 4 1.794 4 4S92.205 18 90 18z" fill="#ffffff" data-fill-palette-color="accent"></path></svg></g></svg></g></svg></g><defs></defs></svg><rect width="395.52" height="71.41473081886524" fill="none" stroke="none" visibility="hidden"></rect></g></svg></g></svg>